<svg clip-rule="evenodd" fill-rule="evenodd" viewBox="0 0 560 400" xmlns="http://www.w3.org/2000/svg"><g transform="matrix(2.14993 0 0 -2.14993 71.0729 1456.81)"><circle cx="97.179" cy="-574.703" fill="#971e1f" r="46.513" transform="scale(1 -1)"/><g fill-rule="nonzero"><path d="m0 0 .57-.247c.352-.153.348-.361.181-.744l-1.213-2.796-1.42.615 1.215 2.797c.166.383.315.528.667.375m2.541-5.092-2.081.904 1.456 3.356c.355.818.232 1.327-.514 1.651l-1.191.517c-.745.324-1.202.067-1.557-.752l-1.988-4.577 5.344-2.321z" fill="#fff" transform="translate(63.6247 591.599)"/><path d="m0 0-3.059-3.261-2.692 2.526 3.058 3.261zm-2.198-3.944 2.935 3.129c.749.799.783 1.247-.016 1.996l-2.24 2.101c-.798.75-1.244.688-1.993-.111l-2.936-3.13c-.749-.798-.782-1.246.017-1.996l2.239-2.101c.799-.749 1.244-.687 1.994.112" fill="#fff" transform="translate(73.7522 599.733)"/><path d="m0 0 .314-.626c.172-.343.036-.5-.337-.687l-2.726-1.367-.728 1.453 2.725 1.367c.374.187.58.203.752-.14m.28-2.272.687.344c.797.4 1.028.87.665 1.596l-.613 1.222c-.365.726-.88.822-1.677.422l-4.46-2.237 2.612-5.208 1.19.597-.987 1.968 1.15.577 3.087-.915 1.735.87z" fill="#fff" transform="translate(82.256 609.175)"/><path d="m0 0 .162-1.026 2.643.416.743-4.729 1.338.21-.743 4.729 2.654.417-.161 1.027z" fill="#fff" transform="translate(87.997 612.765)"/><path d="m0 0-4.33.591.64 4.688-1.343.183-.787-5.773 5.671-.774z" fill="#fff" transform="translate(105.513 608.262)"/><path d="m0 0 2.198 1.573.101-2.68zm3.319 2.287-1.18.568-5.498-3.82 1.221-.588 1.164.856 3.327-1.601.078-1.454 1.373-.66z" fill="#fff" transform="translate(111.758 607.333)"/><path d="m0 0c.122.117.335.336.63.681-.021-.239-.018-.455-.007-.679l.355-5.582.64-.668 4.21 4.027-.843.88-2.211-2.115c-.131-.124-.359-.375-.687-.735.031.311.021.615-.003.919l-.353 5.334-.639.669-4.211-4.027.843-.881z" fill="#fff" transform="translate(122.442 601.358)"/><path d="m0 0-.709 1.6 3.376 1.495.974-2.199c.517-1.166.199-2.011-.885-2.49-1.321-.586-2.061.025-2.756 1.594m-.882-.712c.419-.949.833-1.631 1.382-2.006.783-.541 1.801-.609 2.802-.166 1.652.732 2.166 2.219 1.283 4.211l-1.518 3.428-5.326-2.36z" fill="#fff" transform="translate(129.05 588.601)"/><path d="m0 0 1.206-2.389-4.274-2.158.611-1.209 4.274 2.158 1.21-2.4.928.469-3.027 5.997z" fill="#fff" transform="translate(65.2768 561.891)"/><path d="m0 0-3.287 2.667 1.422 1.754-1.052.853-3.67-4.522 1.052-.855 1.579 1.947 3.287-2.669-1.579-1.946 1.061-.86 3.67 4.523-1.061.862z" fill="#fff" transform="translate(76.643 545.473)"/><path d="m0 0-.818-3.6-4.36.99.818 3.6zm.141 1.033-4.184.95c-1.067.243-1.471.045-1.713-1.023l-.681-2.995c-.242-1.068.037-1.421 1.105-1.663l4.184-.951c1.068-.242 1.472-.044 1.714 1.024l.68 2.995c.242 1.068-.036 1.42-1.105 1.663" fill="#fff" transform="translate(92.0652 540.393)"/><path d="m0 0c.407.094.612.06.698-.315l.157-.682c.086-.374-.083-.493-.49-.587l-2.97-.685-.366 1.584zm1.183-2.415c.869.2 1.204.601 1.022 1.394l-.307 1.332c-.183.791-.661 1.006-1.53.805l-4.862-1.121 1.308-5.677 1.298.299-.495 2.146 1.255.289 2.783-1.618 1.892.436-3.113 1.542z" fill="#fff" transform="translate(106.453 541.249)"/><path d="m0 0 1.905-2.395c.112-.141.341-.392.67-.752-.307.059-.61.078-.915.081l-5.345.134-.725-.576 3.627-4.559.955.758-1.961 2.465c-.106.133-.305.365-.621.691.236-.044.451-.06.676-.07l5.59-.154.726.576-3.628 4.56z" fill="#fff" transform="translate(119.952 549.697)"/><path d="m0 0-.721.35c-.986.478-1.398.276-1.876-.709l-1.587-3.271-1.128.547 1.667 3.433.599-.291.269 1.2-.112.055c-.905.439-1.326.191-1.779-.744l-1.444-2.976c-.479-.985-.378-1.424.608-1.902l.579-.281c.986-.478 1.393-.286 1.87.7l1.588 3.27 1.198-.581-1.799-3.708-.62.301-.298-1.186.142-.069c.985-.478 1.397-.276 1.874.709l1.573 3.241c.478.986.382 1.433-.603 1.912" fill="#fff" transform="translate(132.885 560.856)"/><path d="m0 0h-2.06v-.697h1.112v-.481h-1.112v-1.004h-.614v2.643h2.674zm-1.325 5.06c-.055-5.824-5.962-5.851-5.962-5.851s5.935-.138 5.935-5.991c.027 5.88 6.099 5.88 5.962 5.908-.138.027-5.99.083-5.935 5.934m70.511-5.475-.615-.097v.502h-1.66v-1.675h1.66v.568l.615-.129v-.311c0-.497-.158-.625-.656-.625h-1.577c-.498 0-.657.128-.657.625v1.393c0 .497.159.625.657.625h1.577c.498 0 .656-.128.656-.625zm-1.432 5.475c-.055-5.824-5.962-5.851-5.962-5.851s5.935-.138 5.935-5.991c.027 5.88 6.099 5.88 5.962 5.908-.137.027-5.99.083-5.935 5.934" fill="#fff" transform="translate(63.9743 575.549)"/><path d="m0 0c-2.688 1.146-4.083.705-4.083.705s3.038-1.016 2.398-3.769c-.465-2.006-.865-4.456-.948-6.719-.205-3.537.151-5.989-2.337-9.351l1.348-1.881c.602.47 1.273 1.441 1.667 2.025 2.773-.647 4.155-.264 4.155-.264s-3.169 1.333-3.036 3.627c.156 2.715.29 5.133.395 7.202.371 6.303 2.615 9.427 7.139 7.243l1.353 1.829c-3.808 1.911-6.399.95-8.051-.647" fill="#fff" transform="translate(81.2314 596.82)"/><path d="m0 0c-2.848-.652-3.717-1.829-3.717-1.829s3.054.963 4.155-1.64c.803-1.897 1.92-4.113 3.182-5.994 1.913-2.981 3.642-4.756 3.606-8.938l2.197-.731c.21.735.182 1.916.158 2.62 2.623 1.106 3.516 2.228 3.516 2.228s-3.346-.784-4.588 1.15c-1.469 2.288-2.782 4.323-3.912 6.059-3.407 5.317-3.427 9.163 1.518 10.056l.018 2.274c-4.204-.692-5.735-2.992-6.133-5.255" fill="#fff" transform="translate(71.2676 583.221)"/><path d="m0 0c-1.92-2.202-1.931-3.665-1.931-3.665s1.905 2.575 4.325 1.117c1.764-1.064 3.971-2.2 6.098-2.98 3.299-1.287 5.741-1.706 8.171-5.111l2.206.7c-.262.718-.978 1.657-1.412 2.213 1.472 2.436 1.535 3.869 1.535 3.869s-2.247-2.601-4.387-1.766c-2.534.987-4.793 1.861-6.727 2.601-5.881 2.299-8.158 5.4-4.683 9.028l-1.322 1.85c-2.994-3.03-2.88-5.791-1.873-7.856" fill="#fff" transform="translate(71.1999 566.362)"/><path d="m0 0c-.259-2.91.592-4.101.592-4.101s.027 3.204 2.842 3.446c2.053.177 4.506.554 6.684 1.174 3.427.898 5.648 1.994 9.616.667l1.374 1.864c-.634.427-1.766.765-2.443.959-.242 2.837-1.033 4.034-1.033 4.034s-.289-3.425-2.512-4.009c-2.63-.69-4.971-1.311-6.971-1.849-6.109-1.596-9.773-.427-9.095 4.551l-2.157.721c-.641-4.212 1.074-6.379 3.103-7.457" fill="#fff" transform="translate(81.0549 552.684)"/><path d="m0 0c1.501-2.508 2.889-2.97 2.889-2.97s-1.86 2.607.275 4.458c1.556 1.35 3.319 3.097 4.717 4.878 2.245 2.742 3.397 4.934 7.386 6.192l.017 2.315c-.764-.027-1.878-.418-2.541-.659-1.862 2.152-3.205 2.655-3.205 2.655s1.779-2.94.324-4.718c-1.722-2.105-3.252-3.983-4.553-5.594-4.004-4.882-7.656-6.09-10.034-1.663l-2.168-.686c1.957-3.784 4.618-4.529 6.893-4.208" fill="#fff" transform="translate(97.0671 547.411)"/><path d="m0 0c2.687-1.146 4.083-.705 4.083-.705s-3.038 1.016-2.398 3.768c.465 2.007.864 4.457.948 6.72.205 3.537-.152 5.989 2.336 9.351l-1.347 1.882c-.602-.47-1.274-1.442-1.668-2.026-2.772.647-4.155.264-4.155.264s3.169-1.333 3.037-3.628c-.157-2.714-.29-5.132-.396-7.2-.369-6.304-2.614-9.428-7.138-7.244l-1.353-1.828c3.807-1.912 6.398-.951 8.051.646" fill="#fff" transform="translate(113.122 552.556)"/><path d="m0 0c2.848.653 3.717 1.83 3.717 1.83s-3.055-.964-4.156 1.638c-.802 1.899-1.918 4.115-3.181 5.995-1.914 2.981-3.642 4.756-3.606 8.939l-2.197.73c-.211-.734-.183-1.915-.159-2.619-2.622-1.107-3.516-2.229-3.516-2.229s3.347.784 4.589-1.15c1.469-2.287 2.783-4.322 3.912-6.059 3.406-5.317 3.427-9.163-1.517-10.056l-.019-2.274c4.204.691 5.735 2.992 6.133 5.255" fill="#fff" transform="translate(123.085 566.155)"/><path d="m0 0c1.921 2.202 1.932 3.665 1.932 3.665s-1.906-2.575-4.325-1.116c-1.765 1.063-3.971 2.199-6.098 2.978-3.301 1.288-5.742 1.707-8.172 5.112l-2.205-.7c.261-.717.977-1.657 1.411-2.212-1.471-2.437-1.535-3.869-1.535-3.869s2.246 2.6 4.388 1.766c2.533-.987 4.793-1.862 6.727-2.602 5.881-2.299 8.158-5.399 4.683-9.027l1.321-1.851c2.994 3.03 2.88 5.791 1.873 7.856" fill="#fff" transform="translate(123.153 583.014)"/><path d="m0 0c.26 2.909-.592 4.1-.592 4.1s-.027-3.203-2.842-3.445c-2.053-.177-4.506-.555-6.684-1.174-3.427-.898-5.649-1.995-9.615-.668l-1.374-1.863c.633-.427 1.765-.766 2.442-.96.242-2.836 1.033-4.033 1.033-4.033s.289 3.425 2.512 4.008c2.63.691 4.971 1.311 6.971 1.849 6.11 1.597 9.773.428 9.095-4.551l2.157-.72c.641 4.211-1.073 6.378-3.103 7.457" fill="#fff" transform="translate(113.297 596.692)"/><path d="m0 0c-1.501 2.506-2.889 2.97-2.889 2.97s1.86-2.608-.274-4.459c-1.557-1.35-3.32-3.097-4.718-4.878-2.244-2.742-3.397-4.934-7.386-6.192l-.016-2.315c.763.027 1.878.419 2.54.659 1.863-2.152 3.206-2.655 3.206-2.655s-1.779 2.94-.324 4.719c1.722 2.104 3.251 3.982 4.552 5.592 4.005 4.884 7.656 6.091 10.034 1.665l2.169.684c-1.957 3.785-4.618 4.53-6.894 4.21" fill="#fff" transform="translate(97.2849 601.966)"/><path d="m0 0c0 3.454-3.502 3.535-3.502 3.535s3.486.016 3.518 3.454c-.032-3.454 3.422-3.487 3.502-3.503.082-.016-3.502-.016-3.518-3.486m9.733 3.635s-1.192-2.526-1.429-1.589c-.57 2.254-1.966 4.457-6.894 6.112.948.367 2.147.53 3.63.212 3.994-.855 3.895-5.014 3.914-5.016 0 0 1.259 1.508.807 4.025-.788 4.393-6.758 5.13-6.758 5.13s2.033-1.915 1.07-1.85c-2.321.155-4.848-.492-7.944-4.671-.058 1.016.158 2.208.92 3.521 2.048 3.534 5.973 2.154 5.98 2.173 0 0-1.045 1.662-3.578 2.01-4.421.608-6.967-4.841-6.967-4.841s2.448 1.342 2.09.445c-.865-2.16-1.03-4.762 1.987-8.998-.984.26-2.051.833-3.065 1.963-2.727 3.039-.202 6.346-.218 6.359 0 0-1.904-.48-3.018-2.782-1.944-4.017 2.452-8.122 2.452-8.122s-.519 2.743.222 2.125c1.787-1.489 4.21-2.451 9.17-.892-.551-.855-1.424-1.692-2.811-2.306-3.734-1.656-6.099 1.768-6.116 1.758 0 0-.132-1.96 1.713-3.731 3.22-3.091 8.483-.178 8.483-.178s-2.77.354-1.954.868c1.969 1.239 3.633 3.247 3.683 8.446.643-.789 1.169-1.878 1.325-3.387.42-4.063-3.567-5.254-3.561-5.273 0 0 1.822-.731 4.076.476 3.935 2.107 2.791 8.013 2.791 8.013" fill="#fff" transform="translate(97.3506 571.194)"/><path d="m93.604 629.709c.809 2.461 1.291 3.987 1.272 4.032-.012.03-.863.665-1.892 1.412l-1.87 1.357 4.706.024.164.503c.091.276.422 1.292.736 2.257.315.965.583 1.723.596 1.685.013-.039.343-1.05.732-2.246l.707-2.176 4.714-.047-1.867-1.352c-1.027-.744-1.883-1.366-1.901-1.382-.019-.016.291-1.028.687-2.249.397-1.222.714-2.229.704-2.239s-.863.597-1.895 1.348c-1.032.752-1.903 1.357-1.935 1.344-.045-.017-3.54-2.535-3.761-2.71-.031-.025.015.173.103.439z" fill="#971e1f"/><path d="m112.439 623.406c0 .021.985 3.068 1.378 4.266l.064.194-1.89 1.374-1.89 1.374 4.688.047.732 2.256.732 2.256.243-.736c.134-.404.467-1.424.74-2.267l.497-1.532 4.679-.024-1.894-1.376-1.893-1.375.062-.175c.199-.563 1.385-4.268 1.371-4.282-.009-.009-.867.603-1.907 1.359l-1.891 1.375-.214-.155c-3.68-2.673-3.607-2.621-3.607-2.579z" fill="#971e1f"/><path d="m74.583 623.653c1.137 3.462 1.361 4.192 1.301 4.25-.034.034-.891.663-1.905 1.398l-1.843 1.336h4.694l.046.105c.025.058.353 1.053.729 2.211.376 1.159.694 2.124.708 2.147.013.022.347-.953.742-2.166.395-1.214.73-2.227.746-2.252.017-.028.915-.045 2.371-.045h2.344l-1.843-1.337c-1.014-.735-1.871-1.364-1.905-1.396-.05-.048.071-.464.662-2.278.397-1.22.716-2.225.71-2.233-.007-.008-.868.608-1.914 1.367l-1.901 1.381-1.895-1.379c-1.042-.758-1.903-1.378-1.915-1.378-.011 0 .019.121.068.269z" fill="#971e1f"/></g><circle cx="97.179" cy="-574.703" fill="none" r="43.625" stroke="#fff" stroke-width="2.28" transform="scale(1 -1)"/></g></svg>